<svg width="15" height="16" viewBox="0 0 15 16" fill="none" xmlns="http://www.w3.org/2000/svg">
<path d="M14.298 13.702L10.428 9.832C11.129 8.903 11.55 7.751 11.55 6.5C11.55 3.44 9.061 0.949997 6 0.949997C2.94 0.949997 0.450001 3.44 0.450001 6.5C0.450001 9.561 2.94 12.05 6 12.05C7.251 12.05 8.403 11.629 9.332 10.928L13.202 14.798C13.353 14.949 13.552 15.026 13.75 15.026C13.948 15.026 14.146 14.95 14.298 14.798C14.601 14.495 14.601 14.005 14.298 13.702ZM1.55 6.5C1.55 4.046 3.547 2.05 6 2.05C8.454 2.05 10.45 4.047 10.45 6.5C10.45 8.953 8.454 10.95 6 10.95C3.546 10.95 1.55 8.954 1.55 6.5Z" fill="white" fill-opacity="0.8"/>
</svg>
